<?xml version="1.0" encoding="utf-8"?>
<!-- Generator: Adobe Illustrator 24.1.1, SVG Export Plug-In . SVG Version: 6.00 Build 0)  -->
<svg version="1.1" id="Layer_1" xmlns="http://www.w3.org/2000/svg" xmlns:xlink="http://www.w3.org/1999/xlink" x="0px" y="0px"
	 viewBox="0 0 512 512" style="enable-background:new 0 0 512 512;" xml:space="preserve">
<style type="text/css">
	.st0{fill:#DA2430;}
	.st1{fill:#E82429;}
	.st2{fill:#C22035;}
	.st3{fill:#AC223B;}
	.st4{fill:#B92135;}
</style>
<g>
	<path class="st0" d="M148.7,232l-82.2,29.9c1.1,13.2,3.3,26.2,6.5,39l78.1-28.4C148.6,259.3,147.7,245.7,148.7,232"/>
	<path class="st0" d="M512,141.1c-5.7-11.8-12.4-23.3-20-34L409.8,137c9.6,9.8,17.6,20.8,24.2,32.5L512,141.1L512,141.1z"/>
	<path class="st0" d="M366.2,140.6c-10.3-9-22-16.7-35-22.8h0c-76.3-35.6-167.4-2.5-203,73.9c-2,4.3-3.8,8.7-5.3,13.1
		c-4.4,12.9-7,26.1-8,39.3l-0.3,0.1l0,0.3l-49.5,18l-31.8,11.8l0-0.2l-0.9,0.3c-3.1-39.1,3.5-79.5,21.2-117.5
		c2.3-5,4.8-9.8,7.4-14.6C119.4,33.5,252.4-12.1,364.5,41.1c23.2,11,43.8,25.4,61.5,42.4c11.9,11,22.5,23.1,31.7,36.1l-82.2,29.9
		c-0.4-0.4-0.8-0.9-1.3-1.3l-0.2,0.1C371.5,145.6,368.9,143.1,366.2,140.6z"/>
	<path class="st1" d="M36.9,407.1l-0.1,0C19.6,383,7.2,356,0,327.5L78.1,299l0,0l0,0.3l0.5-0.2l0,0c4,21.2,12.4,41.5,24.5,59.3
		c4.6,6.6,9.8,12.9,15.5,18.8l-0.3,0.1c0.2,0.2,0.4,0.4,0.6,0.6l-81.5,30.1C37.3,407.7,37.1,407.4,36.9,407.1z"/>
	<path class="st0" d="M347.1,386c-42.4,26.2-96.7,31.2-145.1,8.7c-17.1-8-32-18.8-44.5-31.6l-82,29.9c0.2,0.3,0.4,0.6,0.6,0.9l0,0
		c22.6,32.2,53.3,59.2,91.1,77c81.4,38.6,173.8,25.1,240.7-26.7c30-22.4,55-52.3,71.8-88.6c17.7-38,24.3-78.4,21.2-117.5l-2.3,0.8
		c0-0.4-0.1-0.8-0.1-1.3L417,267.9l0,0c-1.3,18-5.8,36-13.7,53.2C390.6,348.8,370.8,370.8,347.1,386z"/>
	<path class="st1" d="M437.8,168.1l1.2-0.4v0c12.8,26.4,20.7,55.2,23,84.6l-82,29.8c0-0.2,0-0.4,0-0.6l-1.6,0.6
		c2.2-30.4-4.6-60.5-19-86.8l77.5-28.7l0,0C437.3,167.1,437.6,167.6,437.8,168.1z"/>
	<path class="st2" d="M148.8,231.5l-81.6,30.2c1,13.3,3.3,26.4,6.5,39.3l77.5-28.7C148.6,259,147.7,245.3,148.8,231.5"/>
	<path class="st2" d="M509.5,139.9c-5.7-11.9-12.3-23.5-19.9-34.3L408,135.7c9.5,9.9,17.5,21,24,32.8L509.5,139.9L509.5,139.9z"/>
	<polygon class="st3" points="67.1,261.7 148.6,231.9 148.2,248.2 69.7,277.9 67.1,261.7 	"/>
	<polygon class="st3" points="408,135.5 490.7,107.1 499.3,120.1 419,148.5 408,135.5 	"/>
	<polygon class="st4" points="76.1,393.6 157.6,363.9 182.3,387.2 96.8,419.3 76.1,393.6 	"/>
	<polygon class="st4" points="499.8,238 417,267.9 410.9,301 499.2,269.5 499.8,238 	"/>
</g>
</svg>
